<?xml version="1.0" encoding="iso-8859-1"?>
<!-- Generator: Adobe Illustrator 19.0.0, SVG Export Plug-In . SVG Version: 6.00 Build 0)  -->
<svg version="1.1" id="Layer_1" xmlns="http://www.w3.org/2000/svg" xmlns:xlink="http://www.w3.org/1999/xlink" x="0px" y="0px"
	 viewBox="0 0 511.999 511.999" style="enable-background:new 0 0 511.999 511.999;" xml:space="preserve">
<polygon style="fill:#DB1616;" points="341.347,59.404 297.294,104.955 278.034,57.763 308.897,25.85 "/>
<polygon style="fill:#FE623F;" points="341.612,60.189 297.559,105.74 278.299,58.549 309.162,26.635 "/>
<polygon style="fill:#DB1616;" points="272.495,63.298 241.631,95.21 261.102,142.185 304.944,96.85 "/>
<polygon style="fill:#FE623F;" points="270.916,129.819 227.073,175.154 207.603,128.178 238.466,96.266 "/>
<polygon style="fill:#DB1616;" points="233.194,168.591 189.35,213.925 169.88,166.95 200.744,135.037 "/>
<polygon style="fill:#FE623F;" points="165.66,171.698 134.797,203.612 154.267,250.586 198.109,205.252 "/>
<polygon style="fill:#DB1616;" points="163.553,235.582 119.711,280.917 100.241,233.942 131.104,202.029 "/>
<polygon style="fill:#FE623F;" points="130.053,274.882 86.209,320.217 66.74,273.241 97.603,241.328 "/>
<polygon style="fill:#DB1616;" points="94.44,314.709 63.577,346.621 31.127,313.068 61.991,281.155 "/>
<polygon style="fill:#FE623F;" points="449.763,171.313 399.118,221.958 451.587,244.101 487.069,208.619 "/>
<polygon style="fill:#DB1616;" points="452.642,242.519 417.16,278.001 364.931,255.618 415.336,205.213 "/>
<polygon style="fill:#FE623F;" points="377.743,242.806 327.338,293.21 379.567,315.594 415.049,280.111 "/>
<polygon style="fill:#DB1616;" points="344.899,275.123 294.494,325.527 346.723,347.911 382.205,312.428 "/>
<polygon style="fill:#FE623F;" points="347.251,350.021 311.768,385.504 259.539,363.119 309.945,312.714 "/>
<polygon style="fill:#DB1616;" points="276.573,345.031 226.168,395.436 278.396,417.821 313.878,382.338 "/>
<polygon style="fill:#FE623F;" points="240.562,379.986 190.158,430.391 242.386,452.774 277.868,417.293 "/>
<rect x="179.315" y="423.906" transform="matrix(-0.7071 0.7071 -0.7071 -0.7071 667.34 624.149)" style="fill:#DB1616;" width="50.18" height="52.758"/>
<g>
	<polygon style="fill:#6E0B0B;" points="144.208,250.649 37.758,357.098 154.9,474.24 261.349,367.79 217.701,294.297 	"/>
	<polygon style="fill:#6E0B0B;" points="357.1,37.758 250.65,144.207 294.298,217.7 367.792,261.348 474.241,154.899 	"/>
</g>
<rect x="180.73" y="173.165" transform="matrix(-0.7071 0.7071 -0.7071 -0.7071 618.0278 255.9951)" style="fill:#A41010;" width="150.53" height="165.661"/>
<path d="M184.745,511.998c-2.025,0-4.051-0.772-5.596-2.318c-3.091-3.091-3.091-8.102,0-11.192l14.4-14.4l-18.653-18.653l-14.4,14.4
	c-3.091,3.091-8.102,3.091-11.191,0L32.163,362.694c-3.091-3.091-3.091-8.101,0-11.191l14.4-14.4L27.909,318.45l-14.4,14.4
	c-3.091,3.091-8.102,3.091-11.191,0c-3.091-3.091-3.091-8.101,0-11.191l19.94-19.94c0.019-0.019,0.037-0.038,0.056-0.056
	c0.019-0.019,0.038-0.037,0.056-0.056l34.829-34.829c0.012-0.011,0.022-0.022,0.034-0.034c0.012-0.011,0.022-0.022,0.034-0.033
	l34.831-34.831c0.018-0.018,0.035-0.036,0.053-0.054c0.018-0.018,0.036-0.036,0.054-0.053l34.829-34.829
	c0.012-0.012,0.023-0.024,0.036-0.036c0.012-0.013,0.024-0.024,0.036-0.036l34.849-34.849c0.012-0.012,0.022-0.022,0.034-0.034
	c0.011-0.012,0.022-0.022,0.034-0.033l34.837-34.837c0.016-0.016,0.032-0.033,0.047-0.049c0.016-0.016,0.032-0.033,0.049-0.049
	l34.843-34.843c0.01-0.01,0.019-0.019,0.027-0.027c0.01-0.009,0.019-0.019,0.027-0.027l69.766-69.766
	c0.015-0.015,0.029-0.03,0.043-0.043c0.015-0.015,0.029-0.028,0.043-0.043l19.953-19.953c3.091-3.091,8.102-3.091,11.191,0
	c3.091,3.091,3.091,8.102,0,11.192l-14.4,14.4l18.653,18.653l14.4-14.4c3.091-3.091,8.102-3.091,11.191,0l117.142,117.142
	c3.091,3.091,3.091,8.102,0,11.191l-14.4,14.4l18.653,18.652l14.4-14.4c3.091-3.091,8.102-3.091,11.191,0
	c3.091,3.091,3.091,8.101,0,11.191l-19.94,19.94c-0.019,0.019-0.037,0.038-0.056,0.056c-0.019,0.019-0.038,0.037-0.056,0.056
	l-34.829,34.829c-0.012,0.012-0.022,0.022-0.034,0.034c-0.012,0.011-0.022,0.022-0.034,0.033l-34.831,34.833
	c-0.018,0.018-0.035,0.036-0.053,0.054c-0.018,0.018-0.036,0.036-0.054,0.053l-34.829,34.829c-0.012,0.012-0.023,0.024-0.036,0.036
	c-0.012,0.013-0.024,0.024-0.036,0.036l-34.849,34.849c-0.012,0.012-0.022,0.022-0.034,0.034c-0.011,0.012-0.022,0.022-0.034,0.033
	l-34.837,34.837c-0.016,0.016-0.032,0.033-0.048,0.049c-0.016,0.016-0.032,0.032-0.049,0.049l-34.843,34.843
	c-0.009,0.01-0.019,0.019-0.027,0.027c-0.009,0.009-0.019,0.019-0.027,0.027l-69.766,69.766c-0.015,0.015-0.028,0.03-0.043,0.043
	c-0.015,0.015-0.028,0.028-0.043,0.043l-19.953,19.953C188.795,511.226,186.771,511.998,184.745,511.998z M186.088,454.243
	l18.653,18.653l23.727-23.727l-18.653-18.653L186.088,454.243z M48.951,357.098L154.9,463.048l95.255-95.255L144.206,261.843
	L48.951,357.098z M221.006,419.325l18.653,18.653l23.727-23.727l-18.653-18.653L221.006,419.325z M255.925,384.406l18.653,18.652
	l23.727-23.727l-18.653-18.653L255.925,384.406z M290.844,349.488l18.653,18.653l23.727-23.727l-18.653-18.653L290.844,349.488z
	 M155.398,250.652l105.948,105.949l95.255-95.255L250.653,155.397L155.398,250.652z M325.762,314.569l18.653,18.653l23.727-23.727
	l-18.653-18.653L325.762,314.569z M39.101,307.258l18.652,18.653l23.727-23.727l-18.653-18.653L39.101,307.258z M360.681,279.65
	l18.653,18.653l23.727-23.727l-18.653-18.653l-10.98,10.981c-0.013,0.013-0.024,0.024-0.037,0.037
	c-0.013,0.013-0.024,0.025-0.037,0.037L360.681,279.65z M74.021,272.339l18.653,18.652l23.727-23.727l-18.653-18.652L74.021,272.339
	z M395.599,244.732l18.653,18.652l23.727-23.727l-18.653-18.652L395.599,244.732z M108.94,237.421l18.653,18.653l10.98-10.981
	c0.013-0.013,0.024-0.024,0.037-0.037c0.013-0.013,0.024-0.024,0.037-0.037l12.672-12.672l-18.653-18.653L108.94,237.421z
	 M261.844,144.204l105.949,105.949l95.255-95.255L357.1,48.949L261.844,144.204z M430.518,209.813l18.653,18.653l23.727-23.727
	l-18.652-18.653L430.518,209.813z M143.857,202.502l18.653,18.653l23.727-23.727l-18.653-18.653L143.857,202.502z M178.776,167.583
	l18.653,18.653l23.727-23.727l-18.653-18.653L178.776,167.583z M213.694,132.665l18.653,18.653l23.727-23.727l-18.653-18.652
	L213.694,132.665z M248.613,97.746l18.653,18.653l23.727-23.727L272.34,74.019L248.613,97.746z M283.531,62.827l18.653,18.653
	l23.727-23.727L307.258,39.1L283.531,62.827z"/>
<g>
</g>
<g>
</g>
<g>
</g>
<g>
</g>
<g>
</g>
<g>
</g>
<g>
</g>
<g>
</g>
<g>
</g>
<g>
</g>
<g>
</g>
<g>
</g>
<g>
</g>
<g>
</g>
<g>
</g>
</svg>
